<?xml version="1.0" encoding="UTF-8"?>
<svg version="1.1" xmlns="http://www.w3.org/2000/svg" width="1920" height="1080">
<path d="M0 0 C57.42 0 114.84 0 174 0 C175.48679725 2.97359449 175.11112605 5.66299179 175.09765625 8.9765625 C175.09553383 10.00443375 175.09553383 10.00443375 175.09336853 11.05307007 C175.08776675 13.24375761 175.07521406 15.4343433 175.0625 17.625 C175.05748522 19.10937352 175.05292228 20.59374865 175.04882812 22.078125 C175.03779677 25.71878315 175.02053099 29.35938164 175 33 C174.01 33 173.02 33 172 33 C172 33.66 172 34.32 172 35 C170.75952172 35.00358253 170.75952172 35.00358253 169.49398327 35.00723743 C149.38925713 35.06632446 129.2846515 35.14183394 109.18005657 35.23571491 C99.45769521 35.28071698 89.73537084 35.32012139 80.01293945 35.34643555 C71.54074703 35.36937999 63.06867125 35.40273798 54.59657127 35.44870156 C50.10894103 35.4726819 45.62142665 35.49137906 41.13373375 35.49761391 C36.9123389 35.50364311 32.69124068 35.52356388 28.46995544 35.55427551 C26.9183438 35.56309063 25.36669344 35.56677117 23.81505775 35.56500816 C21.70067444 35.56336385 19.58720453 35.57998048 17.47294617 35.60127258 C15.69619019 35.60818603 15.69619019 35.60818603 13.88354015 35.61523914 C10.69564591 36.04061103 9.98647821 36.59905338 8 39 C7.34 39 6.68 39 6 39 C5.67 40.32 5.34 41.64 5 43 C4.34 43 3.68 43 3 43 C3 43.66 3 44.32 3 45 C0.525 45.495 0.525 45.495 -2 46 C-2 46.99 -2 47.98 -2 49 C-2.66 49 -3.32 49 -4 49 C-4 54.61 -4 60.22 -4 66 C48.8 66 101.6 66 156 66 C156 66.66 156 67.32 156 68 C156.99 68 157.98 68 159 68 C159 78.23 159 88.46 159 99 C155.63501605 100.12166132 153.11236294 100.12303239 149.5650177 100.12025452 C148.90908605 100.12110894 148.2531544 100.12196337 147.57734603 100.12284368 C145.375511 100.12449315 143.17375186 100.11898584 140.97192383 100.11352539 C139.39514671 100.11324338 137.81836945 100.11340153 136.24159241 100.1139679 C131.95677128 100.11425532 127.67197804 100.10836743 123.3871634 100.10139394 C118.91083558 100.09515129 114.43450716 100.09455588 109.95817566 100.09336853 C101.47968682 100.09025791 93.00121084 100.08204813 84.52272767 100.07201904 C74.87109017 100.06084957 65.21945206 100.05534535 55.5678097 100.05032361 C35.71186595 100.03986531 15.85593378 100.02227105 -4 100 C-4 102.97 -4 105.94 -4 109 C-2.68 109.33 -1.36 109.66 0 110 C0.12375 110.639375 0.2475 111.27875 0.375 111.9375 C0.58125 112.618125 0.7875 113.29875 1 114 C1.99 114.495 1.99 114.495 3 115 C3 115.66 3 116.32 3 117 C3.66 117 4.32 117 5 117 C6.625 118.375 6.625 118.375 8 120 C8 120.66 8 121.32 8 122 C9.65 122.33 11.3 122.66 13 123 C13 123.66 13 124.32 13 125 C66.13 125 119.26 125 174 125 C175.42917743 127.85835486 175.12980809 130.31257719 175.1328125 133.50390625 C175.13410156 134.80134766 175.13539063 136.09878906 175.13671875 137.43554688 C175.13462402 138.11222412 175.1325293 138.78890137 175.13037109 139.48608398 C175.12501202 141.55785415 175.13032518 143.62940839 175.13671875 145.70117188 C175.13478516 147.64540039 175.13478516 147.64540039 175.1328125 149.62890625 C175.13168457 150.82588135 175.13055664 152.02285645 175.12939453 153.25610352 C175 156 175 156 174 157 C171.76878779 157.09923959 169.5343671 157.12632425 167.3009491 157.12698364 C166.59237882 157.12854363 165.88380855 157.13010362 165.15376645 157.13171089 C162.76158859 157.1357234 160.36947335 157.13253024 157.97729492 157.12939453 C156.2693732 157.1307485 154.56145176 157.1325284 152.85353088 157.13470459 C148.20057012 157.13928051 143.54763142 157.13748844 138.89467025 157.1343255 C134.03315784 157.13180149 129.17164737 157.13413967 124.31013489 157.13571167 C116.14124206 157.13753376 107.97235826 157.13512656 99.8034668 157.13037109 C90.3542188 157.12493385 80.90499239 157.12668706 71.45574492 157.1321975 C63.35296735 157.136734 55.25019628 157.13737637 47.14741784 157.13475883 C42.30375681 157.13319832 37.46010593 157.13299602 32.61644554 157.13629532 C28.06028291 157.13918162 23.50414813 157.13718429 18.94798851 157.13140106 C17.27422126 157.13007732 15.60045166 157.13046106 13.92668533 157.13266373 C11.64442573 157.13539047 9.3622557 157.13197529 7.08000183 157.12698364 C5.16277707 157.1264181 5.16277707 157.1264181 3.20682049 157.12584114 C0.59178532 157.02322267 -1.52234669 156.78276912 -4 156 C-4 155.34 -4 154.68 -4 154 C-4.61875 153.9175 -5.2375 153.835 -5.875 153.75 C-8 153 -8 153 -9.0625 151 C-9.371875 150.34 -9.68125 149.68 -10 149 C-10.99 148.67 -11.98 148.34 -13 148 C-13 147.34 -13 146.68 -13 146 C-13.66 146 -14.32 146 -15 146 C-15 145.34 -15 144.68 -15 144 C-15.99 143.67 -16.98 143.34 -18 143 C-18 142.34 -18 141.68 -18 141 C-19.32 140.67 -20.64 140.34 -22 140 C-22.495 138.02 -22.495 138.02 -23 136 C-24.32 135.67 -25.64 135.34 -27 135 C-27.103125 134.360625 -27.20625 133.72125 -27.3125 133.0625 C-27.539375 132.381875 -27.76625 131.70125 -28 131 C-28.99 130.67 -29.98 130.34 -31 130 C-31 129.34 -31 128.68 -31 128 C-31.66 128 -32.32 128 -33 128 C-33 127.34 -33 126.68 -33 126 C-33.99 125.67 -34.98 125.34 -36 125 C-36 124.34 -36 123.68 -36 123 C-36.66 123 -37.32 123 -38 123 C-38 122.01 -38 121.02 -38 120 C-38.66 120 -39.32 120 -40 120 C-40.0694077 109.34311115 -40.12276419 98.68627578 -40.15543652 88.02920723 C-40.17111495 83.08107667 -40.19239277 78.13310036 -40.22631836 73.18505859 C-40.2588344 68.41291659 -40.2768366 63.64092325 -40.28463173 58.86867905 C-40.29018923 57.04493747 -40.30104119 55.22120433 -40.31719017 53.39752579 C-40.33886167 50.8496343 -40.34197129 48.30236285 -40.34057617 45.75439453 C-40.35675491 44.61503952 -40.35675491 44.61503952 -40.3732605 43.45266724 C-40.36076355 41.35354614 -40.36076355 41.35354614 -40 38 C-39.01 37.34 -38.02 36.68 -37 36 C-35.80767387 33.94996045 -35.80767387 33.94996045 -35 32 C-34.34 32 -33.68 32 -33 32 C-33 31.34 -33 30.68 -33 30 C-32.34 30 -31.68 30 -31 30 C-30.67 29.01 -30.34 28.02 -30 27 C-29.34 27 -28.68 27 -28 27 C-27.731875 26.360625 -27.46375 25.72125 -27.1875 25.0625 C-26 23 -26 23 -23 22 C-22.67 21.01 -22.34 20.02 -22 19 C-21.34 19 -20.68 19 -20 19 C-20 18.34 -20 17.68 -20 17 C-19.34 17 -18.68 17 -18 17 C-17.67 16.01 -17.34 15.02 -17 14 C-16.34 14 -15.68 14 -15 14 C-15 13.34 -15 12.68 -15 12 C-14.34 12 -13.68 12 -13 12 C-12.67 11.01 -12.34 10.02 -12 9 C-11.34 9 -10.68 9 -10 9 C-9.7525 8.360625 -9.505 7.72125 -9.25 7.0625 C-8 5 -8 5 -5.875 4.25 C-5.25625 4.1675 -4.6375 4.085 -4 4 C-4 3.34 -4 2.68 -4 2 C-2.68 2 -1.36 2 0 2 C0 1.34 0 0.68 0 0 Z " fill="#141C1F" transform="translate(960,543)"/>
<path d="M0 0 C18.05425605 -0.04670329 36.10849645 -0.08198064 54.16279984 -0.10362434 C62.54556547 -0.11394062 70.9282936 -0.12800767 79.31103516 -0.15087891 C86.61671211 -0.17080202 93.92236189 -0.18371388 101.22806525 -0.18817699 C105.09702654 -0.1907862 108.9659101 -0.19692627 112.8348465 -0.21146011 C116.47584952 -0.225027 120.11674273 -0.22922446 123.75776863 -0.22621536 C125.73225936 -0.22702859 127.70673812 -0.23779492 129.68119812 -0.24884033 C130.85626419 -0.246091 132.03133026 -0.24334167 133.24200439 -0.24050903 C134.26335102 -0.24235262 135.28469765 -0.24419621 136.33699417 -0.24609566 C139.97249962 0.08987135 142.10862717 1.07664011 144.6328125 3.69140625 C145.12523437 4.30886719 145.61765625 4.92632813 146.125 5.5625 C148.20903634 8.21025666 148.20903634 8.21025666 151 10 C151 10.66 151 11.32 151 12 C151.66 12 152.32 12 153 12 C154.625 13.375 154.625 13.375 156 15 C156 15.66 156 16.32 156 17 C156.66 17 157.32 17 158 17 C159.33203125 18.390625 159.33203125 18.390625 160.8125 20.25 C163.29370595 23.26768291 165.9374289 25.56795824 169 28 C169 28.66 169 29.32 169 30 C169.66 30 170.32 30 171 30 C172.625 31.375 172.625 31.375 174 33 C174 33.66 174 34.32 174 35 C174.66 35 175.32 35 176 35 C177.22401385 38.67204155 177.13170361 42.04560516 177.11352539 45.86791992 C177.11367142 46.66815079 177.11381744 47.46838165 177.1139679 48.29286194 C177.11327105 50.93875842 177.10548929 53.58458456 177.09765625 56.23046875 C177.09579126 58.06464093 177.09436774 59.8988136 177.09336853 61.73298645 C177.08954972 66.56136449 177.07972484 71.38971246 177.06866455 76.21807861 C177.05843677 81.14473056 177.05386798 86.07138737 177.04882812 90.99804688 C177.03810203 100.66537779 177.02103321 110.3326864 177 120 C176.01 120.33 175.02 120.66 174 121 C172.83046584 123.42383077 172.83046584 123.42383077 172 126 C171.67 126.66 171.34 127.32 171 128 C170.34 128 169.68 128 169 128 C169 128.66 169 129.32 169 130 C167.625 131.625 167.625 131.625 166 133 C165.34 133 164.68 133 164 133 C164 133.66 164 134.32 164 135 C162.34997172 136.35386936 160.6825613 137.68678142 159 139 C158.67 139.66 158.34 140.32 158 141 C157.34 141 156.68 141 156 141 C156 141.66 156 142.32 156 143 C154.625 144.625 154.625 144.625 153 146 C152.34 146 151.68 146 151 146 C151 146.66 151 147.32 151 148 C149.625 149.625 149.625 149.625 148 151 C147.34 151 146.68 151 146 151 C146 151.66 146 152.32 146 153 C143.68864067 156.04126228 141.68433556 156.43995348 138 157 C136.06151622 157.08831862 134.12039565 157.12625866 132.17990112 157.12698364 C131.01621002 157.12980347 129.85251892 157.13262329 128.65356445 157.13552856 C127.38585205 157.13350433 126.11813965 157.1314801 124.81201172 157.12939453 C123.45655266 157.1307503 122.10109398 157.13253123 120.74563599 157.13470459 C117.07228486 157.13925711 113.39896187 157.13749856 109.72561026 157.1343255 C105.88064085 157.13179168 102.03567384 157.1341422 98.19070435 157.13571167 C91.73634407 157.13752993 85.28199525 157.13513558 78.82763672 157.13037109 C71.3630055 157.12492452 63.89840158 157.12669537 56.43377101 157.1321975 C50.02433217 157.13673289 43.61490155 157.13737722 37.20546162 157.13475883 C33.37743693 157.133199 29.54942508 157.13299436 25.72140121 157.13629532 C22.12467289 157.13918036 18.52797985 157.13718666 14.93125534 157.13140106 C12.97929686 157.12944474 11.0273354 157.13242168 9.07537842 157.13552856 C7.91732697 157.13270874 6.75927551 157.12988892 5.56613159 157.12698364 C4.55773161 157.12660662 3.54933163 157.12622959 2.51037407 157.12584114 C0 157 0 157 -3 156 C-3 155.34 -3 154.68 -3 154 C-3.99 153.67 -4.98 153.34 -6 153 C-6 152.34 -6 151.68 -6 151 C-6.66 151 -7.32 151 -8 151 C-8 150.34 -8 149.68 -8 149 C-8.99 148.67 -9.98 148.34 -11 148 C-11 147.34 -11 146.68 -11 146 C-11.66 146 -12.32 146 -13 146 C-13 145.34 -13 144.68 -13 144 C-13.99 143.67 -14.98 143.34 -16 143 C-16 142.34 -16 141.68 -16 141 C-17.32 140.67 -18.64 140.34 -20 140 C-20.495 138.02 -20.495 138.02 -21 136 C-22.32 135.67 -23.64 135.34 -25 135 C-25.103125 134.360625 -25.20625 133.72125 -25.3125 133.0625 C-25.539375 132.381875 -25.76625 131.70125 -26 131 C-26.99 130.67 -27.98 130.34 -29 130 C-29 129.34 -29 128.68 -29 128 C-29.66 128 -30.32 128 -31 128 C-31 127.34 -31 126.68 -31 126 C-31.99 125.67 -32.98 125.34 -34 125 C-34 124.34 -34 123.68 -34 123 C-34.66 123 -35.32 123 -36 123 C-36 122.01 -36 121.02 -36 120 C-36.66 120 -37.32 120 -38 120 C-38 92.61 -38 65.22 -38 37 C-37.34 37 -36.68 37 -36 37 C-36 36.34 -36 35.68 -36 35 C-35.34 35 -34.68 35 -34 35 C-33.67 34.01 -33.34 33.02 -33 32 C-32.34 32 -31.68 32 -31 32 C-31 31.34 -31 30.68 -31 30 C-30.34 30 -29.68 30 -29 30 C-28.67 29.01 -28.34 28.02 -28 27 C-27.34 27 -26.68 27 -26 27 C-25.731875 26.360625 -25.46375 25.72125 -25.1875 25.0625 C-24 23 -24 23 -21 22 C-20.67 21.01 -20.34 20.02 -20 19 C-19.34 19 -18.68 19 -18 19 C-18 18.34 -18 17.68 -18 17 C-17.34 17 -16.68 17 -16 17 C-15.67 16.01 -15.34 15.02 -15 14 C-14.34 14 -13.68 14 -13 14 C-13 13.34 -13 12.68 -13 12 C-12.34 12 -11.68 12 -11 12 C-10.67 11.01 -10.34 10.02 -10 9 C-9.34 9 -8.68 9 -8 9 C-8 8.34 -8 7.68 -8 7 C-6.625 5.375 -6.625 5.375 -5 4 C-4.34 4 -3.68 4 -3 4 C-3 3.34 -3 2.68 -3 2 C-2.01 2 -1.02 2 0 2 C0 1.34 0 0.68 0 0 Z M5 39 C5 39.66 5 40.32 5 41 C4.34 41 3.68 41 3 41 C1.33333333 42.33333333 1.33333333 42.33333333 0 44 C0 44.66 0 45.32 0 46 C-0.66 46 -1.32 46 -2 46 C-3.7245837 47.09664682 -3.7245837 47.09664682 -5 49 C-5.43602573 51.72479173 -5.43602573 51.72479173 -5.34057617 54.84838867 C-5.34034958 56.0494072 -5.34012299 57.25042572 -5.33988953 58.48783875 C-5.32440567 59.78478165 -5.30892181 61.08172455 -5.29296875 62.41796875 C-5.28737234 63.75889105 -5.28310245 65.09981949 -5.28010559 66.44075012 C-5.26866018 69.96724431 -5.23919618 73.49336684 -5.20599365 77.01971436 C-5.17528589 80.61921155 -5.16159878 84.2187689 -5.14648438 87.81835938 C-5.11432579 94.87905814 -5.06313345 101.93950479 -5 109 C-4.34 109 -3.68 109 -3 109 C-2.67 109.99 -2.34 110.98 -2 112 C-1.34 112 -0.68 112 0 112 C0 112.66 0 113.32 0 114 C1.33333333 115.66666667 1.33333333 115.66666667 3 117 C3.66 117 4.32 117 5 117 C5 117.66 5 118.32 5 119 C6.33333333 120.66666667 6.33333333 120.66666667 8 122 C8.66 122 9.32 122 10 122 C10.33 122.66 10.66 123.32 11 124 C49.61 124 88.22 124 128 124 C128 123.34 128 122.68 128 122 C128.99 122 129.98 122 131 122 C131 121.34 131 120.68 131 120 C131.9590625 119.5978125 131.9590625 119.5978125 132.9375 119.1875 C135.33131686 118.11332248 135.33131686 118.11332248 136 115 C136.598125 114.87625 137.19625 114.7525 137.8125 114.625 C141.11346745 113.68186644 142.12667836 111.8131104 144 109 C144.57290419 106.08192162 144.57290419 106.08192162 144.45410156 102.92456055 C144.45379944 101.72369308 144.45349731 100.52282562 144.45318604 99.28556824 C144.43254089 97.99894791 144.41189575 96.71232758 144.390625 95.38671875 C144.38315827 94.04865873 144.37746738 92.71058772 144.37347412 91.37251282 C144.35825131 87.86234992 144.31900009 84.35285626 144.2746582 80.84295654 C144.23363207 77.25672457 144.21544755 73.67038373 144.1953125 70.08398438 C144.15250133 63.05571585 144.08429168 56.02789012 144 49 C143.01 48.67 142.02 48.34 141 48 C140.33333333 46.66666667 139.66666667 45.33333333 139 44 C138.01 43.67 137.02 43.34 136 43 C135.33333333 41.66666667 134.66666667 40.33333333 134 39 C133.01 38.67 132.02 38.34 131 38 C130.67 37.01 130.34 36.02 130 35 C114.44035076 34.9065372 98.88075247 34.83601135 83.32088947 34.79275131 C76.09607367 34.77213053 68.87143233 34.74401946 61.64672852 34.69824219 C55.34928352 34.65835926 49.05196488 34.63256365 42.75439709 34.62364602 C39.42013823 34.61843359 36.08632492 34.6040929 32.75216103 34.57707977 C29.02897186 34.54811018 25.3065354 34.54404148 21.58325195 34.54589844 C19.92708359 34.52432678 19.92708359 34.52432678 18.23745728 34.50231934 C10.76050485 34.49294081 10.76050485 34.49294081 5 39 Z " fill="#141C1F" transform="translate(1670,543)"/>
<path d="M0 0 C57.42 0 114.84 0 174 0 C174 0.66 174 1.32 174 2 C174.99 2 175.98 2 177 2 C177 2.66 177 3.32 177 4 C178.98 4.495 178.98 4.495 181 5 C181.33 6.32 181.66 7.64 182 9 C183.98 9.495 183.98 9.495 186 10 C186.103125 10.639375 186.20625 11.27875 186.3125 11.9375 C186.539375 12.618125 186.76625 13.29875 187 14 C187.99 14.33 188.98 14.66 190 15 C190 15.66 190 16.32 190 17 C190.66 17 191.32 17 192 17 C192 17.66 192 18.32 192 19 C192.99 19.33 193.98 19.66 195 20 C195 20.66 195 21.32 195 22 C196.32 22.33 197.64 22.66 199 23 C199.33 24.32 199.66 25.64 200 27 C201.32 27.33 202.64 27.66 204 28 C204.33 29.32 204.66 30.64 205 32 C206.32 32.33 207.64 32.66 209 33 C209.33 34.32 209.66 35.64 210 37 C210.66 37 211.32 37 212 37 C212 54.49 212 71.98 212 90 C211.34 90 210.68 90 210 90 C209.67 91.65 209.34 93.3 209 95 C208.34 95 207.68 95 207 95 C207 95.66 207 96.32 207 97 C205.625 98.625 205.625 98.625 204 100 C203.34 100 202.68 100 202 100 C202 100.66 202 101.32 202 102 C200.625 103.625 200.625 103.625 199 105 C198.34 105 197.68 105 197 105 C197 105.66 197 106.32 197 107 C195.625 108.625 195.625 108.625 194 110 C193.34 110 192.68 110 192 110 C192 110.66 192 111.32 192 112 C190.34997172 113.35386936 188.6825613 114.68678142 187 116 C186.67 116.66 186.34 117.32 186 118 C185.34 118 184.68 118 184 118 C184 118.66 184 119.32 184 120 C182.625 121.625 182.625 121.625 181 123 C180.34 123 179.68 123 179 123 C179 123.66 179 124.32 179 125 C178.34 125 177.68 125 177 125 C177 125.66 177 126.32 177 127 C173.81218142 128.06260619 171.55989022 128.12319009 168.21040344 128.12025452 C167.00305542 128.12162918 165.7957074 128.12300385 164.55177307 128.12442017 C163.21200537 128.12088105 161.87223791 128.11724624 160.5324707 128.11352539 C159.12317914 128.11324335 157.71388743 128.11340158 156.30459595 128.1139679 C152.47637046 128.11425521 148.6481762 128.10836905 144.81995797 128.10139394 C140.82009301 128.09514952 136.82022736 128.09455574 132.82035828 128.09336853 C125.24497586 128.09025843 117.66960785 128.08204936 110.09423178 128.07201904 C101.47038632 128.06084794 92.84654017 128.05534494 84.22268927 128.05032361 C66.48178468 128.0398665 48.7408935 128.02227325 31 128 C31.00523682 128.77714355 31.01047363 129.55428711 31.01586914 130.35498047 C31.03660156 133.86164549 31.04964821 137.36829763 31.0625 140.875 C31.07087891 142.09832031 31.07925781 143.32164062 31.08789062 144.58203125 C31.09111328 145.74863281 31.09433594 146.91523437 31.09765625 148.1171875 C31.10289307 149.19597168 31.10812988 150.27475586 31.11352539 151.38623047 C31 154 31 154 30 156 C19.77 156 9.54 156 -1 156 C-1 155.34 -1 154.68 -1 154 C-1.66 154 -2.32 154 -3 154 C-3 104.5 -3 55 -3 4 C-2.34 4 -1.68 4 -1 4 C-0.67 2.68 -0.34 1.36 0 0 Z M31 33 C31 53.79 31 74.58 31 96 C72.91 96 114.82 96 158 96 C158 95.34 158 94.68 158 94 C158.99 94 159.98 94 161 94 C161 93.34 161 92.68 161 92 C163.475 91.505 163.475 91.505 166 91 C166 90.34 166 89.68 166 89 C166.99 88.67 167.98 88.34 169 88 C169 87.34 169 86.68 169 86 C169.66 86 170.32 86 171 86 C172.66666667 84.66666667 172.66666667 84.66666667 174 83 C174 82.34 174 81.68 174 81 C174.66 81 175.32 81 176 81 C177.08649093 77.74052722 177.12928509 75.33489025 177.1328125 71.90625 C177.13474609 70.11380859 177.13474609 70.11380859 177.13671875 68.28515625 C177.13285156 67.03605469 177.12898438 65.78695312 177.125 64.5 C177.12886719 63.25089844 177.13273437 62.00179687 177.13671875 60.71484375 C177.13542969 59.51988281 177.13414062 58.32492187 177.1328125 57.09375 C177.13112061 55.44922852 177.13112061 55.44922852 177.12939453 53.77148438 C177.1216493 50.91221469 177.1216493 50.91221469 176 48 C175.34 48 174.68 48 174 48 C174 47.34 174 46.68 174 46 C173.34 46 172.68 46 172 46 C171.67 45.01 171.34 44.02 171 43 C170.34 43 169.68 43 169 43 C168.5978125 42.0409375 168.5978125 42.0409375 168.1875 41.0625 C167.11332248 38.66868314 167.11332248 38.66868314 164 38 C163.67 37.01 163.34 36.02 163 35 C161.68 35 160.36 35 159 35 C159 34.34 159 33.68 159 33 C116.76 33 74.52 33 31 33 Z " fill="#141C1F" transform="translate(1158,543)"/>
<path d="M0 0 C45.54 0 91.08 0 138 0 C138 0.66 138 1.32 138 2 C139.32 2 140.64 2 142 2 C142 2.66 142 3.32 142 4 C143.98 4.495 143.98 4.495 146 5 C146 5.66 146 6.32 146 7 C146.66 7 147.32 7 148 7 C148 7.99 148 8.98 148 10 C148.66 10 149.32 10 150 10 C151.55078125 11.57421875 151.55078125 11.57421875 153.3125 13.6875 C155.41290746 16.16860631 157.48296476 18.47223221 159.8125 20.75 C162 23 162 23 163.0625 25.25 C163.8653367 27.22094022 163.8653367 27.22094022 166.125 27.75 C166.74375 27.8325 167.3625 27.915 168 28 C168.33 29.32 168.66 30.64 169 32 C169.598125 32.0825 170.19625 32.165 170.8125 32.25 C174.20575044 33.41340015 175.27913064 35.81133592 177.07373047 38.77050781 C178.2464596 41.59321799 178.22646296 43.80663013 178.1953125 46.859375 C178.18564453 48.53193359 178.18564453 48.53193359 178.17578125 50.23828125 C178.15064453 51.97658203 178.15064453 51.97658203 178.125 53.75 C178.11597656 54.92433594 178.10695313 56.09867188 178.09765625 57.30859375 C178.07410063 60.20593536 178.04120652 63.10286441 178 66 C177.34 66 176.68 66 176 66 C176 66.99 176 67.98 176 69 C165.77 69 155.54 69 145 69 C145 67.68 145 66.36 145 65 C144.34 64.67 143.68 64.34 143 64 C143.66 64 144.32 64 145 64 C145 60.04 145 56.08 145 52 C144.34 52 143.68 52 143 52 C142.67 50.02 142.34 48.04 142 46 C141.34 46 140.68 46 140 46 C140 45.34 140 44.68 140 44 C138.35 43.67 136.7 43.34 135 43 C135 42.34 135 41.68 135 41 C134.34 41 133.68 41 133 41 C131.375 39.625 131.375 39.625 130 38 C130 37.34 130 36.68 130 36 C90.4 36 50.8 36 10 36 C9.67 36.99 9.34 37.98 9 39 C8.34 39 7.68 39 7 39 C7 39.66 7 40.32 7 41 C6.34 41 5.68 41 5 41 C4.67 41.99 4.34 42.98 4 44 C3.34 44 2.68 44 2 44 C2 44.66 2 45.32 2 46 C1.34 46 0.68 46 0 46 C-0.33 46.99 -0.66 47.98 -1 49 C-1.66 49 -2.32 49 -3 49 C-3 68.8 -3 88.6 -3 109 C-2.34 109 -1.68 109 -1 109 C-1 109.99 -1 110.98 -1 112 C-0.01 112 0.98 112 2 112 C2 112.66 2 113.32 2 114 C2.99 114.33 3.98 114.66 5 115 C5 115.66 5 116.32 5 117 C5.66 117 6.32 117 7 117 C7 117.66 7 118.32 7 119 C7.99 119.33 8.98 119.66 10 120 C10 120.66 10 121.32 10 122 C11.65 122.33 13.3 122.66 15 123 C15 123.66 15 124.32 15 125 C51.96 124.67 88.92 124.34 127 124 C127.33 123.34 127.66 122.68 128 122 C129.32 122 130.64 122 132 122 C132.33 121.01 132.66 120.02 133 119 C133.66 119 134.32 119 135 119 C135 118.34 135 117.68 135 117 C135.66 117 136.32 117 137 117 C137.33 116.01 137.66 115.02 138 114 C138.66 114 139.32 114 140 114 C140 113.34 140 112.68 140 112 C140.66 111.67 141.32 111.34 142 111 C142.65213292 108.97536745 142.65213292 108.97536745 143 107 C143.66 107 144.32 107 145 107 C145 102.71 145 98.42 145 94 C144.34 93.67 143.68 93.34 143 93 C143.66 93 144.32 93 145 93 C145.33 91.68 145.66 90.36 146 89 C155.24 89 164.48 89 174 89 C174 89.66 174 90.32 174 91 C175.32 91.33 176.64 91.66 178 92 C178 100.25 178 108.5 178 117 C177.34 117 176.68 117 176 117 C175.814375 118.1446875 175.814375 118.1446875 175.625 119.3125 C175 122 175 122 173 125 C172.34 125 171.68 125 171 125 C171 125.99 171 126.98 171 128 C170.34 128 169.68 128 169 128 C168.67 128.99 168.34 129.98 168 131 C167.34 131 166.68 131 166 131 C166 131.66 166 132.32 166 133 C165.34 133 164.68 133 164 133 C163.67 133.99 163.34 134.98 163 136 C162.34 136 161.68 136 161 136 C160.731875 136.639375 160.46375 137.27875 160.1875 137.9375 C159 140 159 140 156 141 C155.67 141.99 155.34 142.98 155 144 C154.34 144 153.68 144 153 144 C153 144.66 153 145.32 153 146 C152.34 146 151.68 146 151 146 C150.67 146.99 150.34 147.98 150 149 C149.34 149 148.68 149 148 149 C148 149.66 148 150.32 148 151 C147.34 151 146.68 151 146 151 C145.67 151.99 145.34 152.98 145 154 C144.34 154 143.68 154 143 154 C143 154.66 143 155.32 143 156 C139.8508038 157.04973207 137.62669223 157.13345838 134.31997681 157.14717102 C132.54503593 157.15790398 132.54503593 157.15790398 130.73423767 157.16885376 C129.43442459 157.17154266 128.13461151 157.17423157 126.79541016 157.17700195 C125.41393361 157.18326778 124.03245874 157.18991469 122.65098572 157.19691467 C118.11368988 157.21793915 113.57639376 157.22831391 109.0390625 157.23828125 C107.47684079 157.24232908 105.91461926 157.24644601 104.35239792 157.25063133 C97.01451906 157.26967759 89.67665025 157.28391114 82.33875144 157.2922433 C73.86759785 157.30202121 65.39670519 157.32835734 56.92564356 157.36874419 C50.37778616 157.39889136 43.83000362 157.41371074 37.28207815 157.41702431 C33.37112752 157.41937596 29.46045582 157.42835126 25.54957962 157.45348549 C21.87067084 157.47674774 18.19222503 157.48100723 14.5132618 157.47072411 C12.52107408 157.46999191 10.52890996 157.48909506 8.53681946 157.50878906 C6.75341911 157.49837334 6.75341911 157.49837334 4.93399048 157.48774719 C3.38707488 157.49132972 3.38707488 157.49132972 1.80890846 157.49498463 C-1.7420857 156.86922998 -3.4537281 155.50488122 -6 153 C-6 152.34 -6 151.68 -6 151 C-6.66 151 -7.32 151 -8 151 C-9.625 149.625 -9.625 149.625 -11 148 C-11 147.34 -11 146.68 -11 146 C-11.66 146 -12.32 146 -13 146 C-14.625 144.625 -14.625 144.625 -16 143 C-16 142.34 -16 141.68 -16 141 C-16.99 140.67 -17.98 140.34 -19 140 C-19 139.34 -19 138.68 -19 138 C-19.66 138 -20.32 138 -21 138 C-21 137.34 -21 136.68 -21 136 C-21.99 135.67 -22.98 135.34 -24 135 C-24 134.34 -24 133.68 -24 133 C-24.66 133 -25.32 133 -26 133 C-27.625 131.625 -27.625 131.625 -29 130 C-29 129.34 -29 128.68 -29 128 C-29.99 127.67 -30.98 127.34 -32 127 C-32 126.34 -32 125.68 -32 125 C-32.66 125 -33.32 125 -34 125 C-34 124.34 -34 123.68 -34 123 C-34.66 123 -35.32 123 -36 123 C-36.495 120.525 -36.495 120.525 -37 118 C-37.66 118 -38.32 118 -39 118 C-39 92.26 -39 66.52 -39 40 C-38.34 40 -37.68 40 -37 40 C-36.67 38.35 -36.34 36.7 -36 35 C-35.34 35 -34.68 35 -34 35 C-34 34.34 -34 33.68 -34 33 C-32.609375 31.66796875 -32.609375 31.66796875 -30.75 30.1875 C-27.73231709 27.70629405 -25.43204176 25.0625711 -23 22 C-22.34 22 -21.68 22 -21 22 C-21 21.34 -21 20.68 -21 20 C-19.625 18.375 -19.625 18.375 -18 17 C-17.34 17 -16.68 17 -16 17 C-16 16.34 -16 15.68 -16 15 C-14.625 13.375 -14.625 13.375 -13 12 C-12.34 12 -11.68 12 -11 12 C-11 11.34 -11 10.68 -11 10 C-9.50390625 8.5625 -9.50390625 8.5625 -7.5625 7 C-4.84811762 4.85474956 -4.84811762 4.85474956 -3 2 C-2.01 2 -1.02 2 0 2 C0 1.34 0 0.68 0 0 Z " fill="#141C1F" transform="translate(723,543)"/>
<path d="M0 0 C52.47 0 104.94 0 159 0 C159 0.66 159 1.32 159 2 C160.32 2 161.64 2 163 2 C164.6328125 3.49609375 164.6328125 3.49609375 166.125 5.4375 C168.18871481 8.16570285 168.18871481 8.16570285 171 10 C171 10.66 171 11.32 171 12 C171.66 12 172.32 12 173 12 C174.26171875 13.3203125 174.26171875 13.3203125 175.6875 15.125 C178.34129256 18.3381704 181.16627715 21.0050452 184.38671875 23.640625 C186.03118487 25.02627684 187.56964687 26.39247322 189 28 C189 28.66 189 29.32 189 30 C189.66 30 190.32 30 191 30 C192.625 31.375 192.625 31.375 194 33 C194 33.66 194 34.32 194 35 C194.66 35 195.32 35 196 35 C197.4375 36.49609375 197.4375 36.49609375 199 38.4375 C201.14525044 41.15188238 201.14525044 41.15188238 204 43 C204.94912342 45.84737027 205.12361832 47.58673654 205.12025452 50.53678894 C205.12231651 51.93131035 205.12231651 51.93131035 205.12442017 53.35400391 C205.12082489 54.37179932 205.11722961 55.38959473 205.11352539 56.43823242 C205.11367142 57.51156326 205.11381744 58.5848941 205.1139679 59.69075012 C205.1132701 63.24567675 205.10548386 66.80055126 205.09765625 70.35546875 C205.0957916 72.81740795 205.09436792 75.27934753 205.09336853 77.74128723 C205.08954706 84.22680686 205.07971991 90.71230415 205.06866455 97.19781494 C205.05844249 103.81351418 205.0538692 110.42921702 205.04882812 117.04492188 C205.03809734 130.02995745 205.02121706 143.01497754 205 156 C201.66095549 157.11301484 199.13370628 157.12936638 195.6171875 157.1328125 C193.74353516 157.13474609 193.74353516 157.13474609 191.83203125 157.13671875 C189.87330078 157.13091797 189.87330078 157.13091797 187.875 157.125 C186.56144531 157.12886719 185.24789062 157.13273438 183.89453125 157.13671875 C182.02474609 157.13478516 182.02474609 157.13478516 180.1171875 157.1328125 C178.96847168 157.13168457 177.81975586 157.13055664 176.63623047 157.12939453 C174 157 174 157 173 156 C172.90470388 152.98649762 172.87448096 149.99595894 172.88647461 146.98217773 C172.88632858 146.03593536 172.88618256 145.08969299 172.8860321 144.11477661 C172.88673164 140.97102608 172.89452591 137.82733399 172.90234375 134.68359375 C172.90420779 132.51025932 172.90563176 130.33692448 172.90663147 128.16358948 C172.91045779 122.43098805 172.92028903 116.69841177 172.93133545 110.96582031 C172.94154713 105.12109721 172.94612857 99.27637007 172.95117188 93.43164062 C172.9619112 81.954416 172.97898898 70.47721009 173 59 C172.34 59 171.68 59 171 59 C171 58.01 171 57.02 171 56 C170.34 56 169.68 56 169 56 C168.67 55.34 168.34 54.68 168 54 C167.154375 53.505 166.30875 53.01 165.4375 52.5 C164.2309375 51.7575 164.2309375 51.7575 163 51 C163 50.34 163 49.68 163 49 C161.68 48.67 160.36 48.34 159 48 C158.896875 47.360625 158.79375 46.72125 158.6875 46.0625 C158.460625 45.381875 158.23375 44.70125 158 44 C157.01 43.67 156.02 43.34 155 43 C155 42.34 155 41.68 155 41 C154.34 41 153.68 41 153 41 C153 40.34 153 39.68 153 39 C152.01 38.67 151.02 38.34 150 38 C150 37.34 150 36.68 150 36 C108.09 35.67 66.18 35.34 23 35 C23.1188133 74.02801592 23.1188133 74.02801592 23.27026367 113.0559082 C23.28381348 120.59606934 23.28381348 120.59606934 23.28633118 124.12345886 C23.29094464 126.59251017 23.3015096 129.06155463 23.31672668 131.53056335 C23.33860078 135.26569401 23.34172088 139.00041085 23.34057617 142.7355957 C23.3513705 143.83963651 23.36216482 144.94367731 23.37328625 146.0811739 C23.36915376 147.08449347 23.36502127 148.08781305 23.36076355 149.12153625 C23.36352893 149.9963178 23.36629431 150.87109934 23.36914349 151.77238941 C22.91797212 154.49500042 22.20479969 155.3805558 20 157 C17.12084961 157.35644531 17.12084961 157.35644531 13.65234375 157.328125 C12.40775391 157.32296875 11.16316406 157.3178125 9.88085938 157.3125 C8.57955078 157.291875 7.27824219 157.27125 5.9375 157.25 C4.63232422 157.24484375 3.32714844 157.2396875 1.98242188 157.234375 C-7.69173366 157.15413317 -7.69173366 157.15413317 -10 156 C-10.93528228 151.94215716 -11.12311302 148.03512655 -11.11593628 143.88328552 C-11.11612259 142.67903931 -11.1163089 141.47479309 -11.11650085 140.23405457 C-11.11141006 138.92632584 -11.10631927 137.61859711 -11.10107422 136.27124023 C-11.09911349 134.8696192 -11.09753139 133.46799759 -11.09629822 132.06637573 C-11.09015953 127.48041339 -11.07293031 122.89452146 -11.0546875 118.30859375 C-11.0488931 116.72686333 -11.04312667 115.1451328 -11.03738785 113.56340218 C-11.01273805 106.98611748 -10.98522606 100.40885576 -10.95004082 93.83161831 C-10.89974776 84.41566439 -10.86639951 75.00000234 -10.85675228 65.58391613 C-10.84860964 58.9551994 -10.82147041 52.32672515 -10.78014576 45.69813305 C-10.75596457 41.74141604 -10.74007837 37.7850729 -10.74441147 33.82827568 C-10.74804788 30.10889136 -10.72815702 26.39037014 -10.69023323 22.67118454 C-10.67571325 20.65764653 -10.68582508 18.64397803 -10.69667053 16.63041687 C-10.55964881 6.79206789 -10.55964881 6.79206789 -7.63357544 3.66957092 C-4.76039097 1.84809842 -3.33407587 1.52370345 0 2 C0 1.34 0 0.68 0 0 Z " fill="#141C1F" transform="translate(459,543)"/>
<path d="M0 0 C71.28 0 142.56 0 216 0 C216 0.66 216 1.32 216 2 C216.66 2 217.32 2 218 2 C218.049377 6.52065428 218.08570823 11.04115217 218.10986328 15.56201172 C218.11993118 17.10045098 218.13358646 18.63887107 218.15087891 20.17724609 C218.17509317 22.38644133 218.18647491 24.59538395 218.1953125 26.8046875 C218.20563507 27.49432587 218.21595764 28.18396423 218.22659302 28.89450073 C218.22699478 30.59800906 218.12191026 32.30085943 218 34 C215.3942555 36.6057445 213.59273444 36.23596852 210.04443169 36.2488575 C208.79049708 36.23806317 208.79049708 36.23806317 207.51123047 36.22705078 C206.61889269 36.22729185 205.72655491 36.22753292 204.80717659 36.2277813 C201.91041314 36.22628507 199.01390508 36.21103824 196.1171875 36.1953125 C194.33211389 36.19237302 192.54703857 36.19033199 190.76196289 36.18920898 C184.13294902 36.17871061 177.50397202 36.15078834 170.875 36.125 C156.06625 36.08375 141.2575 36.0425 126 36 C126 75.6 126 115.2 126 156 C123.02640551 157.48679725 120.33700821 157.11112605 117.0234375 157.09765625 C115.99556625 157.09553383 115.99556625 157.09553383 114.94692993 157.09336853 C112.75624239 157.08776675 110.5656567 157.07521406 108.375 157.0625 C106.89062648 157.05748522 105.40625135 157.05292228 103.921875 157.04882812 C100.28121685 157.03779677 96.64061836 157.02053099 93 157 C92.67 156.01 92.34 155.02 92 154 C91.34 154 90.68 154 90 154 C90 115.06 90 76.12 90 36 C60.51590926 36.11879183 60.51590926 36.11879183 31.03198242 36.27026367 C25.3326416 36.28381348 25.3326416 36.28381348 22.66548157 36.28633118 C20.80059158 36.29094134 18.9357106 36.3014996 17.07087708 36.31672668 C14.24785804 36.33862763 11.42538595 36.34172003 8.60229492 36.34057617 C7.76993663 36.3513705 6.93757833 36.36216482 6.07999706 36.37328625 C0.43921169 36.34260729 0.43921169 36.34260729 -1.71381664 34.66313648 C-3.73752191 32.04632602 -3.35375142 29.68704463 -3.328125 26.43359375 C-3.32296875 25.14388672 -3.3178125 23.85417969 -3.3125 22.52539062 C-3.3021875 21.85483643 -3.291875 21.18428223 -3.28125 20.4934082 C-3.25005904 18.44138415 -3.24027435 16.39012839 -3.234375 14.33789062 C-3.15409729 4.30819459 -3.15409729 4.30819459 -2 2 C-1.34 2 -0.68 2 0 2 C0 1.34 0 0.68 0 0 Z " fill="#141C1F" transform="translate(1393,543)"/>
<path d="M0 0 C6.75479274 -0.7342166 11.18524285 1.72408048 17 5 C17 5.66 17 6.32 17 7 C17.99 7 18.98 7 20 7 C20 7.66 20 8.32 20 9 C20.66 9.061875 21.32 9.12375 22 9.1875 C26.1216675 10.30378495 29.65750502 12.33761566 33 15 C33 15.66 33 16.32 33 17 C33.556875 17.12375 34.11375 17.2475 34.6875 17.375 C37.22114364 18.05976855 39.57921032 18.99133763 42 20 C42 20.66 42 21.32 42 22 C42.99 22 43.98 22 45 22 C45 22.66 45 23.32 45 24 C46.98 24.33 48.96 24.66 51 25 C51 25.66 51 26.32 51 27 C53.65228812 28.07525194 56.28368454 29.09456151 59 30 C59 30.66 59 31.32 59 32 C60.98 32.33 62.96 32.66 65 33 C65.3690205 43.55808656 65.3690205 43.55808656 63 48 C62.34 48 61.68 48 61 48 C59.92474806 50.65228812 58.90543849 53.28368454 58 56 C57.34 56 56.68 56 56 56 C55.67 57.98 55.34 59.96 55 62 C54.34 62 53.68 62 53 62 C53 62.99 53 63.98 53 65 C52.34 65 51.68 65 51 65 C50.67 66.98 50.34 68.96 50 71 C49.34 71 48.68 71 48 71 C48 71.99 48 72.98 48 74 C47.34 74 46.68 74 46 74 C45.67 75.65 45.34 77.3 45 79 C44.34 79 43.68 79 43 79 C42.87625 79.556875 42.7525 80.11375 42.625 80.6875 C41.94023145 83.22114364 41.00866237 85.57921032 40 88 C39.34 88 38.68 88 38 88 C36.92474806 90.65228812 35.90543849 93.28368454 35 96 C34.34 96 33.68 96 33 96 C33 97.32 33 98.64 33 100 C28.68265992 100.37005772 26.57542309 99.35225203 23 97 C22.01 96.67 21.02 96.34 20 96 C20 95.34 20 94.68 20 94 C19.01 94 18.02 94 17 94 C17 93.34 17 92.68 17 92 C16.13375 91.9175 15.2675 91.835 14.375 91.75 C10.50536598 90.89008133 8.20681662 89.28040293 5 87 C4.01 86.67 3.02 86.34 2 86 C2 85.34 2 84.68 2 84 C1.34 83.7525 0.68 83.505 0 83.25 C-3.76360907 81.68182955 -7.3711424 79.85494954 -11 78 C-11 77.34 -11 76.68 -11 76 C-11.86818359 75.81050781 -11.86818359 75.81050781 -12.75390625 75.6171875 C-18.08333698 74.15275262 -23.46879769 71.11520159 -28 68 C-28 67.34 -28 66.68 -28 66 C-28.99 66 -29.98 66 -31 66 C-31.55353075 53.33029613 -31.55353075 53.33029613 -28 48 C-27.34 48 -26.68 48 -26 48 C-24.92474806 45.34771188 -23.90543849 42.71631546 -23 40 C-22.34 40 -21.68 40 -21 40 C-21 39.01 -21 38.02 -21 37 C-20.34 37 -19.68 37 -19 37 C-18.505 34.03 -18.505 34.03 -18 31 C-17.34 31 -16.68 31 -16 31 C-15.89300781 30.43667969 -15.78601563 29.87335938 -15.67578125 29.29296875 C-14.88809833 26.62031051 -13.68208615 24.66221646 -12.1875 22.3125 C-9.34151211 17.69719916 -7.057533 13.01069801 -5 8 C-4.34 8 -3.68 8 -3 8 C-2.87625 7.4225 -2.7525 6.845 -2.625 6.25 C-1.99351176 3.97664233 -1.11141809 2.0746471 0 0 Z " fill="#141C1F" transform="translate(290,377)"/>
<path d="M0 0 C10.89 0 21.78 0 33 0 C33 54.78 33 109.56 33 166 C23.15678463 170.92160769 11.00504935 167 0 167 C0 111.89 0 56.78 0 0 Z " fill="#141C1F" transform="translate(395,533)"/>
<path d="M0 0 C22.11 0 44.22 0 67 0 C67 21.78 67 43.56 67 66 C44.89 66 22.78 66 0 66 C0 44.22 0 22.44 0 0 Z " fill="#141C1F" transform="translate(244,549)"/>
<path d="M0 0 C22.11 0 44.22 0 67 0 C67 21.78 67 43.56 67 66 C44.89 66 22.78 66 0 66 C0 44.22 0 22.44 0 0 Z " fill="#141C1F" transform="translate(65,549)"/>
<path d="M0 0 C22.11 0 44.22 0 67 0 C67 21.78 67 43.56 67 66 C44.89 66 22.78 66 0 66 C0 44.22 0 22.44 0 0 Z " fill="#141C1F" transform="translate(152,460)"/>
<path d="M0 0 C22.11 0 44.22 0 67 0 C67 21.78 67 43.56 67 66 C44.89 66 22.78 66 0 66 C0 44.22 0 22.44 0 0 Z " fill="#141C1F" transform="translate(65,460)"/>
<path d="M0 0 C22.11 0 44.22 0 67 0 C67 21.45 67 42.9 67 65 C44.89 65 22.78 65 0 65 C0 43.55 0 22.1 0 0 Z " fill="#141C1F" transform="translate(244,638)"/>
<path d="M0 0 C22.11 0 44.22 0 67 0 C67 21.45 67 42.9 67 65 C44.89 65 22.78 65 0 65 C0 43.55 0 22.1 0 0 Z " fill="#141C1F" transform="translate(152,638)"/>
<path d="M0 0 C22.11 0 44.22 0 67 0 C67 21.45 67 42.9 67 65 C44.89 65 22.78 65 0 65 C0 43.55 0 22.1 0 0 Z " fill="#141C1F" transform="translate(65,638)"/>
<path d="M0 0 C21.45 0 42.9 0 65 0 C65 21.78 65 43.56 65 66 C43.55 66 22.1 66 0 66 C0 44.22 0 22.44 0 0 Z " fill="#141C1F" transform="translate(155,549)"/>
<path d="M0 0 C0.66 0 1.32 0 2 0 C2 0.99 2 1.98 2 3 C1.01 3 0.02 3 -1 3 C-0.67 2.01 -0.34 1.02 0 0 Z " fill="#141C1F" transform="translate(1853,548)"/>
</svg>
